<?xml version="1.0" encoding="UTF-8" standalone="no"?>
<svg
   xmlns:dc="http://purl.org/dc/elements/1.1/"
   xmlns:cc="http://creativecommons.org/ns#"
   xmlns:rdf="http://www.w3.org/1999/02/22-rdf-syntax-ns#"
   xmlns:svg="http://www.w3.org/2000/svg"
   xmlns="http://www.w3.org/2000/svg"
   viewBox="0 0 3023.6221 3023.6221"
   height="3023.6221"
   width="3023.6221"
   xml:space="preserve"
   id="svg2"
   version="1.1"><metadata
     id="metadata8"><rdf:RDF><cc:Work
         rdf:about=""><dc:format>image/svg+xml</dc:format><dc:type
           rdf:resource="http://purl.org/dc/dcmitype/StillImage" /></cc:Work></rdf:RDF></metadata><defs
     id="defs6" /><g
     transform="matrix(1.3333333,0,0,-1.3333333,0,3023.622)"
     id="g10"><path
       id="path12"
       style="fill:#382d2a;fill-opacity:1;fill-rule:evenodd;stroke:none"
       d="m 1133.856,2145.1054 c 564.7207,0 1022.559,-457.8095 1022.559,-1022.5423 0,-564.7493 -457.8383,-1022.5423 -1022.559,-1022.5423 -564.7329,0 -1022.5548,457.793 -1022.5548,1022.5423 0,6.0669 0.1443,12.1337 0.2311,18.1717 9.7664,-527.0198 480.9058,-976.8364 1010.256,-976.8364 535.4419,0 969.5033,434.0738 969.5033,969.5199 0,535.4419 -475.0078,995.1157 -1010.454,995.1157 -115.8318,0 -226.8754,-20.3578 -329.8561,-57.6048 118.2612,47.7969 247.4768,74.1762 382.8745,74.1762" /><path
       id="path14"
       style="fill:#aec900;fill-opacity:1;fill-rule:evenodd;stroke:none"
       d="M 1791.6795,1903.667 C 1678.788,2051.1283 1177.0997,2304.9028 692.6346,2075.891 444.9104,1950.3873 252.7248,1731.1501 162.7359,1464.8624 c 400.642,378.4243 1347.0862,-219.6456 1628.9436,438.8046" /><path
       id="path16"
       style="fill:#8ea128;fill-opacity:1;fill-rule:evenodd;stroke:#ffffff;stroke-width:14.17319965;stroke-linecap:butt;stroke-linejoin:miter;stroke-miterlimit:22.92558479;stroke-dasharray:none;stroke-opacity:1"
       d="m 1791.6795,1903.667 c -557.631,108.0904 -1383.1991,10.1128 -1628.9436,-438.8046 400.642,378.4243 1347.0862,-219.6456 1628.9436,438.8046 z" /><path
       id="path18"
       style="fill:#1b1b1f;fill-opacity:1;fill-rule:nonzero;stroke:none"
       d="m 480.3959,737.2568 c 1.4057,5.1182 4.5054,9.5519 9.2633,13.2284 4.722,3.7125 10.6691,5.5508 17.7339,5.5508 7.0648,0 12.7958,-2.8474 17.1932,-8.6148 4.3974,-5.7311 6.5963,-14.2375 6.5963,-25.4832 V 595.6381 h -21.6267 v 126.1917 c 0,5.3345 -1.2257,9.3716 -3.7128,12.0387 -2.4508,2.6674 -5.8751,4.0011 -10.2365,4.0011 -4.3614,0 -8.0019,-1.514 -10.8853,-4.5417 -2.8837,-3.0276 -4.3254,-7.5693 -4.3254,-13.6247 V 595.6381 h -21.6266 v 158.4153 h 21.6266 z" /><path
       id="path20"
       style="fill:#1b1b1f;fill-opacity:1;fill-rule:nonzero;stroke:none"
       d="m 607.5607,682.9739 c -8.8668,-4.0009 -14.7782,-7.1008 -17.7339,-9.2994 -2.9557,-2.1628 -5.1902,-4.7219 -6.7042,-7.6416 -1.514,-2.9194 -2.2708,-7.7494 -2.2708,-14.4176 v -14.6701 c 0,-9.2274 0.7931,-15.7516 2.4151,-19.5001 1.622,-3.7848 4.3974,-5.6591 8.3262,-5.6591 3.9648,0 7.3531,1.1534 10.1645,3.4242 2.8114,2.3069 4.7579,4.794 5.8031,7.4614 z m -46.5693,25.2311 c 0,19.1396 2.9917,31.8994 8.9751,38.2431 5.9833,6.3079 14.4898,9.4796 25.5554,9.4796 11.0296,0 19.0675,-2.6671 24.0055,-8.0016 4.9742,-5.3708 8.0379,-13.9493 9.1553,-25.7721 0.4686,-5.0822 0.7209,-11.3178 0.7209,-18.7069 v -107.809 h -21.7347 v 13.733 c -1.1174,-3.8208 -3.6045,-7.281 -7.389,-10.417 -3.8208,-3.1357 -8.5428,-4.6857 -14.1656,-4.6857 -17.9501,0 -26.9974,14.0213 -27.1414,42.0279 v 15.427 c 0,9.0833 2.4871,16.8327 7.461,23.2846 4.9383,6.416 18.6713,13.769 41.1268,22.0232 v 12.2191 c 0,13.5887 -0.9732,21.7709 -2.9557,24.5103 -1.9823,2.7394 -5.3345,4.1091 -10.0922,4.1091 -4.758,0 -7.9299,-2.0545 -9.5519,-6.2356 -1.622,-4.1451 -2.4511,-11.6425 -2.4511,-22.4918 v -5.4788 h -21.5184 z" /><path
       id="path22"
       style="fill:#1b1b1f;fill-opacity:1;fill-rule:nonzero;stroke:none"
       d="m 662.7807,781.4835 h 21.6626 V 752.756 h 17.0853 V 736.7162 H 684.4433 V 621.0856 c 0,-4.0731 0.9372,-6.6322 2.8477,-7.6416 1.9103,-1.0452 6.7042,-1.5497 14.4539,-1.5497 V 594.701 h -14.8864 c -9.9845,0 -16.5085,1.8023 -19.5361,5.4428 -3.0277,3.6043 -4.5417,9.9482 -4.5417,19.0313 v 117.5411 h -14.4539 v 16.0398 h 14.4539 z" /><path
       id="path24"
       style="fill:#1b1b1f;fill-opacity:1;fill-rule:nonzero;stroke:none"
       d="m 773.1488,754.0534 h 21.7349 V 595.6381 h -21.7349 v 16.1479 c -1.694,-5.3345 -4.6137,-9.7319 -8.7228,-13.1562 -4.1091,-3.3882 -9.6599,-5.1182 -16.5804,-5.1182 -6.9205,0 -12.8679,2.8834 -17.8421,8.6145 -4.974,5.7311 -7.4611,14.5621 -7.4611,26.4566 V 754.0534 H 744.205 V 630.9978 c 0,-12.4353 4.5417,-18.671 13.6248,-18.671 5.0825,0 8.867,1.766 11.4621,5.2626 2.5592,3.5322 3.8569,8.1819 3.8569,13.949 z" /><path
       id="path26"
       style="fill:#1b1b1f;fill-opacity:1;fill-rule:nonzero;stroke:none"
       d="m 874.5058,755.9277 c 0.2885,0 0.4325,-4.5774 0.4325,-13.7327 l -0.108,-4.6137 c -12.6516,0 -21.7349,-4.4336 -27.2497,-13.2284 V 595.6381 H 825.846 v 158.4153 h 21.7346 v -17.6618 c 1.8383,6.1997 5.0462,10.9936 9.6599,14.4179 4.6137,3.4242 10.3808,5.1182 17.2653,5.1182" /><path
       id="path28"
       style="fill:#1b1b1f;fill-opacity:1;fill-rule:nonzero;stroke:none"
       d="m 892.1316,704.9251 c 0,20.0046 3.6045,33.9176 10.7773,41.7393 5.6228,6.1636 13.9493,9.2633 24.9426,9.2633 15.8959,0 25.8801,-6.8482 29.9892,-20.5812 2.2348,-7.7496 3.3519,-18.2024 3.3519,-31.3588 V 674.1068 H 913.9025 V 642.532 c 0,-13.733 1.0812,-22.2755 3.28,-25.6638 2.1625,-3.3879 5.6228,-5.0822 10.3447,-5.0822 4.7217,0 7.8577,1.9825 9.4437,5.9114 1.586,3.9648 2.4151,8.2182 2.4871,12.8318 0.072,4.6137 0.108,8.5065 0.108,11.6785 v 12.7956 h 21.2303 v -6.7762 c 0,-16.8327 -1.1894,-28.6195 -3.5685,-35.3597 -2.3428,-6.7765 -5.9114,-11.6425 -10.705,-14.6341 -4.794,-2.9917 -10.7054,-4.5054 -17.8061,-4.5054 -7.0648,0 -12.7236,0.9011 -16.977,2.7031 -4.2531,1.8023 -7.6414,4.1814 -10.1285,7.1371 -2.5231,2.9554 -4.7217,7.6773 -6.6322,14.1293 -1.8743,6.4879 -2.8474,16.9049 -2.8474,31.2505 z m 47.4344,4.0368 c 0,11.2459 -0.4326,18.0584 -1.2254,20.3652 -0.7929,2.3069 -1.8383,4.3614 -3.0997,6.1274 -1.2977,1.7663 -3.5686,2.6314 -6.8845,2.6314 -6.344,0 -10.3448,-2.6674 -12.039,-7.9659 -1.694,-5.2986 -2.5232,-12.6156 -2.5232,-21.915 v -19.4281 h 25.7718 z" /><path
       id="path30"
       style="fill:#1b1b1f;fill-opacity:1;fill-rule:nonzero;stroke:none"
       d="m 1105.1541,631.9709 c -0.072,-25.6274 -11.3899,-38.4593 -33.9177,-38.4593 -11.3902,0 -19.9327,3.6405 -25.6637,10.8853 -5.6951,7.2451 -8.5425,18.9233 -8.5425,34.9631 v 11.9307 h 21.0138 v -11.8224 c 0,-18.3107 4.1451,-27.466 12.4716,-27.466 4.5776,0 7.8576,1.478 9.8761,4.4334 1.9823,2.9556 2.9917,8.1102 2.9917,15.4272 0,11.4619 -5.2625,22.3835 -15.8235,32.7283 -0.7932,0.7928 -2.6314,2.5231 -5.5148,5.2265 -2.8837,2.7034 -4.758,4.5417 -5.6951,5.4425 -13.733,13.0842 -20.5815,27.574 -20.5815,43.3976 0,12.5436 2.9557,21.8789 8.867,28.0426 5.9114,6.1636 14.3096,9.2273 25.2312,9.2273 7.3891,0 13.4084,-1.5137 18.0581,-4.5414 9.7322,-6.3079 14.5622,-21.3023 14.5622,-44.8755 v -7.6054 h -20.5816 v 10.9936 c 0,9.2274 -0.9011,16.1119 -2.7034,20.6535 -1.7659,4.5417 -4.8659,6.8125 -9.2273,6.8125 -4.3614,0 -7.6413,-1.3697 -9.8039,-4.1451 -2.1988,-2.7394 -3.2802,-7.3893 -3.2802,-13.9133 0,-10.2727 4.8299,-20.2209 14.4538,-29.8088 l 11.4262,-10.633 c 14.9224,-14.3096 22.3835,-29.9169 22.3835,-46.8939" /><path
       id="path32"
       style="fill:#1b1b1f;fill-opacity:1;fill-rule:nonzero;stroke:none"
       d="m 1148.6239,740.8253 c 1.9823,4.8659 4.974,8.5065 8.9751,10.9573 4.0368,2.4151 8.2902,3.6405 12.7956,3.6405 12.5796,0 20.5815,-6.5599 23.9697,-19.644 2.0906,-8.1822 3.172,-18.635 3.172,-31.3589 v -57.3466 c 0,-21.05 -2.6674,-35.2153 -7.9659,-42.4604 -5.3345,-7.2448 -12.7959,-10.8853 -22.4558,-10.8853 -3.8568,0 -7.4611,1.2254 -10.7773,3.6042 -3.316,2.3791 -5.8751,5.3348 -7.7134,8.8671 v -39.5048 h -21.6266 v 187.359 h 21.6266 z m 27.1415,-32.6203 c 0,0.7209 0,1.3697 0,2.0186 0,0.6126 0,1.2254 0,1.802 0,0.5408 0,1.0814 0,1.55 0,0.5045 0,0.9731 0,1.4057 0,0.3965 0,0.7931 0,1.1534 0,5.4068 -0.4686,9.3716 -1.3697,11.8227 -0.9731,2.7394 -1.9466,4.7577 -2.8477,6.0194 -1.8383,2.5231 -4.4694,3.7845 -7.9656,3.7845 -3.4963,0 -6.2357,-0.6485 -8.1822,-1.9822 -4.5054,-3.0277 -6.7763,-12.2191 -6.7763,-27.5741 v -64.9522 c 0,-11.1736 0.9732,-19.2115 2.9194,-24.0777 1.9466,-4.83 5.5511,-7.2808 10.8856,-7.2808 5.2986,0 8.8668,2.4871 10.6331,7.389 1.8023,4.938 2.7034,13.2282 2.7034,24.8347 z" /><path
       id="path34"
       style="fill:#1b1b1f;fill-opacity:1;fill-rule:nonzero;stroke:none"
       d="m 1223.5963,704.9251 c 0,20.0046 3.6046,33.9176 10.7774,41.7393 5.6228,6.1636 13.9493,9.2633 24.9426,9.2633 15.8958,0 25.88,-6.8482 29.9891,-20.5812 2.2349,-7.7496 3.352,-18.2024 3.352,-31.3588 v -29.8809 h -47.2901 V 642.532 c 0,-13.733 1.0811,-22.2755 3.2799,-25.6638 2.1626,-3.3879 5.6228,-5.0822 10.3448,-5.0822 4.7217,0 7.8576,1.9825 9.4436,5.9114 1.586,3.9648 2.4151,8.2182 2.4871,12.8318 0.072,4.6137 0.108,8.5065 0.108,11.6785 v 12.7956 h 21.2304 v -6.7762 c 0,-16.8327 -1.1894,-28.6195 -3.5685,-35.3597 -2.3429,-6.7765 -5.9114,-11.6425 -10.7051,-14.6341 -4.7939,-2.9917 -10.7053,-4.5054 -17.8061,-4.5054 -7.0648,0 -12.7236,0.9011 -16.977,2.7031 -4.2531,1.8023 -7.6413,4.1814 -10.1284,7.1371 -2.5231,2.9554 -4.7217,7.6773 -6.6323,14.1293 -1.8742,6.4879 -2.8474,16.9049 -2.8474,31.2505 z m 47.4344,4.0368 c 0,11.2459 -0.4325,18.0584 -1.2254,20.3652 -0.7928,2.3069 -1.8382,4.3614 -3.0997,6.1274 -1.2977,1.7663 -3.5685,2.6314 -6.8845,2.6314 -6.3439,0 -10.3447,-2.6674 -12.039,-7.9659 -1.694,-5.2986 -2.5231,-12.6156 -2.5231,-21.915 v -19.4281 h 25.7717 z" /><path
       id="path36"
       style="fill:#1b1b1f;fill-opacity:1;fill-rule:nonzero;stroke:none"
       d="m 1317.8886,702.0774 c 0,13.733 1.0451,23.7895 3.1359,30.1691 2.0546,6.344 4.3974,11.0296 7.0285,13.9853 5.6951,6.4519 14.0573,9.6959 25.1229,9.6959 11.0296,0 18.9956,-2.7391 23.8615,-8.2179 4.794,-5.5148 7.7497,-13.661 8.8671,-24.5103 0.4325,-4.6497 0.6848,-10.1645 0.7568,-16.5804 v -10.9937 h -21.3383 v 13.9493 c 0,9.8762 -0.3963,16.2922 -1.1535,19.3199 -2.8474,4.5053 -6.1996,7.317 -10.1644,8.4704 -6.8845,0 -11.1376,-3.4602 -12.7596,-10.3447 -1.0814,-4.3974 -1.586,-10.4171 -1.586,-18.0584 v -67.4031 c 0,-10.8133 0.8288,-18.4186 2.4868,-22.744 1.6583,-4.3254 4.83,-6.488 9.5519,-6.488 4.722,0 8.146,1.5137 10.3448,4.5777 2.1625,3.0637 3.28,11.1376 3.28,24.2578 v 15.319 h 21.3383 v -10.2728 c 0,-21.5906 -2.8834,-35.7562 -8.5785,-42.4244 -5.6951,-6.7043 -14.3818,-10.0562 -26.0603,-10.0562 -18.4547,0 -29.268,9.8762 -32.4399,29.5923 -1.1175,7.245 -1.694,15.8235 -1.694,25.7357 z" /><path
       id="path38"
       style="fill:#1b1b1f;fill-opacity:1;fill-rule:nonzero;stroke:none"
       d="m 1413.5865,754.0534 h 21.6266 V 595.6381 h -21.6266 z m 0,34.4226 h 21.7349 v -19.8604 h -21.7349 z" /><path
       id="path40"
       style="fill:#1b1b1f;fill-opacity:1;fill-rule:nonzero;stroke:none"
       d="m 1512.7447,682.9739 c -8.8668,-4.0009 -14.7782,-7.1008 -17.7339,-9.2994 -2.9557,-2.1628 -5.1902,-4.7219 -6.7042,-7.6416 -1.514,-2.9194 -2.2708,-7.7494 -2.2708,-14.4176 v -14.6701 c 0,-9.2274 0.7931,-15.7516 2.4151,-19.5001 1.622,-3.7848 4.3974,-5.6591 8.3262,-5.6591 3.9648,0 7.3531,1.1534 10.1645,3.4242 2.8114,2.3069 4.7579,4.794 5.8031,7.4614 z m -46.5693,25.2311 c 0,19.1396 2.9917,31.8994 8.9751,38.2431 5.9833,6.3079 14.4898,9.4796 25.5554,9.4796 11.0296,0 19.0675,-2.6671 24.0055,-8.0016 4.9742,-5.3708 8.0379,-13.9493 9.1553,-25.7721 0.4686,-5.0822 0.7209,-11.3178 0.7209,-18.7069 v -107.809 h -21.7347 v 13.733 c -1.1174,-3.8208 -3.6045,-7.281 -7.389,-10.417 -3.8208,-3.1357 -8.5428,-4.6857 -14.1656,-4.6857 -17.9501,0 -26.9974,14.0213 -27.1414,42.0279 v 15.427 c 0,9.0833 2.4871,16.8327 7.461,23.2846 4.9383,6.416 18.6713,13.769 41.1268,22.0232 v 12.2191 c 0,13.5887 -0.9732,21.7709 -2.9557,24.5103 -1.9823,2.7394 -5.3345,4.1091 -10.0922,4.1091 -4.758,0 -7.9299,-2.0545 -9.5519,-6.2356 -1.622,-4.1451 -2.4511,-11.6425 -2.4511,-22.4918 v -5.4788 h -21.5184 z" /><path
       id="path42"
       style="fill:#1b1b1f;fill-opacity:1;fill-rule:nonzero;stroke:none"
       d="m 1564.2882,783.5017 h 21.6266 V 595.6381 h -21.6266 z" /><path
       id="path44"
       style="fill:#1b1b1f;fill-opacity:1;fill-rule:nonzero;stroke:none"
       d="m 1617.4176,754.0534 h 21.6267 V 595.6381 h -21.6267 z m 0,34.4226 h 21.735 v -19.8604 h -21.735 z" /><path
       id="path46"
       style="fill:#1b1b1f;fill-opacity:1;fill-rule:nonzero;stroke:none"
       d="m 1733.3725,631.9709 c -0.072,-25.6274 -11.3899,-38.4593 -33.9177,-38.4593 -11.3901,0 -19.9326,3.6405 -25.6637,10.8853 -5.6951,7.2451 -8.5425,18.9233 -8.5425,34.9631 v 11.9307 h 21.0138 v -11.8224 c 0,-18.3107 4.1451,-27.466 12.4716,-27.466 4.5777,0 7.8576,1.478 9.8762,4.4334 1.9822,2.9556 2.9917,8.1102 2.9917,15.4272 0,11.4619 -5.2626,22.3835 -15.8236,32.7283 -0.7931,0.7928 -2.6314,2.5231 -5.5148,5.2265 -2.8837,2.7034 -4.758,4.5417 -5.6951,5.4425 -13.733,13.0842 -20.5815,27.574 -20.5815,43.3976 0,12.5436 2.9557,21.8789 8.8671,28.0426 5.9113,6.1636 14.3095,9.2273 25.2311,9.2273 7.3891,0 13.4085,-1.5137 18.0581,-4.5414 9.7322,-6.3079 14.5622,-21.3023 14.5622,-44.8755 v -7.6054 h -20.5815 v 10.9936 c 0,9.2274 -0.9012,16.1119 -2.7034,20.6535 -1.766,4.5417 -4.866,6.8125 -9.2274,6.8125 -4.3614,0 -7.6413,-1.3697 -9.8039,-4.1451 -2.1988,-2.7394 -3.2802,-7.3893 -3.2802,-13.9133 0,-10.2727 4.8299,-20.2209 14.4538,-29.8088 l 11.4262,-10.633 c 14.9224,-14.3096 22.3835,-29.9169 22.3835,-46.8939" /><path
       id="path48"
       style="fill:#1b1b1f;fill-opacity:1;fill-rule:nonzero;stroke:none"
       d="m 1759.0003,781.4835 h 21.6626 V 752.756 h 17.0853 v -16.0398 h -17.0853 V 621.0856 c 0,-4.0731 0.9371,-6.6322 2.8477,-7.6416 1.9103,-1.0452 6.7042,-1.5497 14.4538,-1.5497 V 594.701 h -14.8864 c -9.9845,0 -16.5084,1.8023 -19.5361,5.4428 -3.0277,3.6043 -4.5416,9.9482 -4.5416,19.0313 v 117.5411 h -14.4539 v 16.0398 h 14.4539 z" /><path
       id="path50"
       style="fill:#aec900;fill-opacity:1;fill-rule:evenodd;stroke:none"
       d="m 447.4363,821.1339 h 1387.584 v 14.3547 H 447.4363 Z" /><path
       id="path52"
       style="fill:#382d2a;fill-opacity:1;fill-rule:nonzero;stroke:none"
       d="m 444.1708,896.377 h 176.7303 v 58.7081 h -109.925 v 352.2489 h -66.8053 z" /><path
       id="path54"
       style="fill:#382d2a;fill-opacity:1;fill-rule:nonzero;stroke:none"
       d="M 637.6022,1307.334 V 994.4198 c 0,-65.7533 34.0101,-103.3265 99.6007,-103.3265 65.5906,0 99.6004,37.5732 99.6004,103.3265 V 1307.334 H 773.642 V 990.3101 c 0,-29.3542 -13.3608,-39.9214 -34.617,-39.9214 -21.2561,0 -34.6173,10.5672 -34.6173,39.9214 v 317.0239 z" /><path
       id="path56"
       style="fill:#382d2a;fill-opacity:1;fill-rule:nonzero;stroke:none"
       d="m 872.9388,896.377 h 66.8052 v 410.957 h -66.8052 z m 39.4758,497.8452 -41.2979,-65.166 h 44.9419 l 61.9466,65.166 z" /><path
       id="path58"
       style="fill:#382d2a;fill-opacity:1;fill-rule:nonzero;stroke:none"
       d="m 970.4134,1208.7045 c 0,-117.4164 130.5737,-133.2677 130.5737,-217.8073 0,-29.3542 -13.3611,-39.9215 -34.6169,-39.9215 -21.2562,0 -34.6173,10.5673 -34.6173,39.9215 v 29.3541 h -63.1613 v -25.2445 c 0,-65.7533 34.0098,-103.3265 99.6004,-103.3265 65.5903,0 99.6007,37.5732 99.6007,103.3265 0,117.4162 -130.5737,133.2675 -130.5737,217.8071 0,29.3542 12.1461,40.5088 33.4023,40.5088 21.2561,0 33.4026,-11.1546 33.4026,-40.5088 v -17.0254 h 63.1613 v 12.916 c 0,65.753 -33.4029,103.3263 -98.3857,103.3263 -64.9832,0 -98.3861,-37.5733 -98.3861,-103.3263" /><path
       id="path60"
       style="fill:#382d2a;fill-opacity:1;fill-rule:nonzero;stroke:none"
       d="m 1507.8917,896.377 c -6.6804,15.264 -7.2881,29.9413 -7.2881,49.902 v 63.4048 c 0,42.857 -10.9315,73.9723 -44.3342,87.4752 29.7587,13.5028 43.727,41.0955 43.727,83.3655 v 32.2894 c 0,63.4048 -29.7587,94.5201 -98.9932,94.5201 h -100.815 V 896.377 h 66.8052 v 167.3184 h 23.0783 c 30.3658,0 43.7269,-14.0902 43.7269,-52.2505 V 946.866 c 0,-33.4635 2.4293,-39.9214 6.0733,-50.489 z m -108.7103,352.249 c 23.6857,0 34.0098,-12.9158 34.0098,-42.27 v -40.5085 c 0,-32.8765 -15.1829,-43.444 -40.083,-43.444 h -26.1148 v 126.2225 z" /><path
       id="path62"
       style="fill:#382d2a;fill-opacity:1;fill-rule:nonzero;stroke:none"
       d="m 1534.9173,896.377 h 66.8052 v 410.957 h -66.8052 z" /><path
       id="path64"
       style="fill:#382d2a;fill-opacity:1;fill-rule:nonzero;stroke:none"
       d="m 1702.2336,1212.8139 c 0,29.3542 13.3611,40.5088 34.6173,40.5088 21.2564,0 34.6175,-11.1546 34.6175,-40.5088 V 990.8972 c 0,-29.3542 -13.3611,-40.5085 -34.6175,-40.5085 -21.2562,0 -34.6173,11.1543 -34.6173,40.5085 z m -66.8049,-217.8071 c 0,-65.7533 35.8316,-103.3265 101.4222,-103.3265 65.5906,0 101.4225,37.5732 101.4225,103.3265 v 213.6977 c 0,65.753 -35.8319,103.3263 -101.4225,103.3263 -65.5906,0 -101.4222,-37.5733 -101.4222,-103.3263 z" /></g></svg>